<?xml version="1.0" standalone="no"?>
<!DOCTYPE svg PUBLIC "-//W3C//DTD SVG 20010904//EN"
 "http://www.w3.org/TR/2001/REC-SVG-20010904/DTD/svg10.dtd">
<svg version="1.0" xmlns="http://www.w3.org/2000/svg"
 width="512.000000pt" height="512.000000pt" viewBox="0 0 512.000000 512.000000"
 preserveAspectRatio="xMidYMid meet">

<g transform="translate(0.000000,512.000000) scale(0.100000,-0.100000)"
fill="#000000" stroke="none">
<path d="M3034 3645 c-321 -49 -606 -173 -843 -363 l-64 -52 -147 0 -146 0
-42 -36 c-110 -94 -249 -261 -257 -309 -3 -16 8 -144 24 -282 l28 -253 -18
-89 c-73 -357 -34 -717 116 -1066 42 -98 43 -104 65 -325 l23 -225 56 -55
c159 -157 441 -308 712 -381 107 -28 130 -31 389 -40 151 -5 696 -9 1210 -9
l935 0 23 26 c27 31 28 54 1 88 l-20 26 -530 0 c-291 0 -529 4 -529 8 0 5 23
19 52 33 237 110 496 334 657 569 219 318 321 669 308 1055 -8 232 -42 394
-128 610 -225 564 -760 981 -1370 1070 -128 18 -389 18 -505 0z m392 -351
c133 -36 252 -160 289 -299 87 -335 -234 -635 -557 -521 -359 127 -394 614
-57 791 101 53 204 62 325 29z m-937 -673 c124 -39 218 -120 273 -236 79 -169
29 -391 -114 -508 -220 -181 -540 -113 -665 141 -37 75 -38 78 -38 191 0 110
2 119 32 182 54 110 177 212 289 238 66 15 159 12 223 -8z m1894 -11 c151 -57
260 -204 274 -370 19 -223 -142 -425 -367 -461 -80 -13 -170 1 -249 38 -73 34
-170 132 -204 204 -115 245 17 528 282 605 65 19 192 11 264 -16z m-976 -524
c92 -62 121 -203 60 -295 -86 -130 -286 -127 -363 5 -65 110 -25 250 89 308
52 27 161 18 214 -18z m-534 -566 c202 -76 324 -299 273 -497 -45 -179 -170
-299 -344 -333 -248 -49 -488 135 -509 390 -18 209 123 402 332 457 65 17 178
9 248 -17z m1077 20 c227 -43 381 -259 349 -489 -33 -232 -266 -403 -495 -364
-164 28 -295 143 -345 304 -95 305 177 609 491 549z"/>
</g>
</svg>
